<svg xmlns="http://www.w3.org/2000/svg" xmlns:xlink="http://www.w3.org/1999/xlink" version="1.1" x="0px" y="0px" viewBox="0 0 503.998 547.925" style="enable-background:new 0 0 503.998 438.34;" xml:space="preserve"><g><path d="M487.008,347.67v-31.53c0-6.63-1.03-13.19-3.07-19.5l-16.19-50.17h10.73c8.76,0,15.88-7.12,15.88-15.88v-18.96   c0-8.76-7.12-15.89-15.88-15.89h-21.94l-6.93-61.78c-3.92-35.03-33.47-61.45-68.73-61.45h-112.1c-35.26,0-64.81,26.42-68.73,61.45   l-6.93,61.78h-21.94c-8.76,0-15.88,7.13-15.88,15.89v11.19c-8.83-1.76-18.18,0.99-24.62,7.45l-12.46,12.51l-7.34-4.15   c-4.59-2.6-10.09-2.63-14.71-0.09l-15.5,8.53c-5.9,3.25-8.95,10.1-7.42,16.66l4.58,19.6l-44.8,44.98   c-0.02,0.02-0.03,0.03-0.05,0.05l-21.19,21.27c-7.85,7.89-8.78,19.99-2.71,28.91c-4.67,6.29-14.82,22.44-4.83,32.8   c3.92,4.07,9.18,5.45,14.54,5.45c8.16,0,16.55-3.21,20.81-5.12c5.28,4.64,12.03,7.19,19.09,7.19c0.71,0,1.43-0.02,2.14-0.08   c8.84-0.64,16.78-5.2,21.79-12.5l66.35-96.6c1.28-1.87,3.73-2.44,5.7-1.32l3.79,2.14c-0.93,3.13-0.98,6.46-0.08,9.68   c0.79,2.86,2.26,5.42,4.27,7.5v19.99c-9.67,1.87-16.99,10.39-16.99,20.59c0,11.57,9.41,20.99,20.99,20.99h10.51v27.77   c0,11.76,9.57,21.32,21.32,21.32h24.06c10.8,0,19.72-8.07,21.11-18.48c15.24-2.56,32.49-13.46,48.51-30.61h113.64v27.77   c0,11.76,9.56,21.32,21.32,21.32h24.06c11.75,0,21.32-9.56,21.32-21.32v-27.77h10.51c11.57,0,20.99-9.42,20.99-20.99   C503.998,358.06,496.678,349.54,487.008,347.67z M479.008,316.14v5.31h-30.38v-17.82h28.95   C478.528,307.72,479.008,311.92,479.008,316.14z M479.008,329.45v17.82h-30.38v-17.82H479.008z M450.888,217.11h-72.42l58.79-79.1   c3.65,5.4,6.07,11.71,6.84,18.59L450.888,217.11z M341.718,119.75h49.65l-72.37,97.36h-49.65L341.718,119.75z M259.378,217.11   h-39.53l72.37-97.36h39.53L259.378,217.11z M401.338,119.75h1.55c11.29,0,21.6,4.52,29.11,11.93l-63.5,85.43h-39.53L401.338,119.75   z M268.778,80.51h112.1c29.33,0,54.19,20.68,59.93,48.92c-9.12-10.86-22.78-17.68-37.92-17.68h-156.12   c-15.14,0-28.8,6.82-37.92,17.68C214.588,101.19,239.448,80.51,268.778,80.51z M205.558,156.6c2.35-21.01,20.07-36.85,41.21-36.85   h35.48l-72.37,97.36h-11.11L205.558,156.6z M197.208,225.11h255.24l22.76,70.52h-47.11c-8.51,0-16.2,3.59-21.64,9.33h-68.56   c7.64-31.81,2.93-58.41-14.62-68.32c-9.65-5.46-21.89-5.11-35.48,0.96c-11.39-5.13-27.41-1.82-43.72,9.08   c-3.82-1.81-8.12-2.2-12.23-1.06c-0.56,0.16-1.11,0.34-1.65,0.55c-0.1-0.57-0.23-1.13-0.38-1.69c-1.26-4.54-4.22-8.32-8.32-10.64   c-4.1-2.32-8.86-2.9-13.4-1.64c-3.43,0.96-6.42,2.88-8.68,5.53l-5.66-1.94L197.208,225.11z M407.798,347.27h-86.2   c6.14-11.63,10.85-23.22,14.15-34.31h65.28c-1.76,3.8-2.75,8.03-2.75,12.49C398.278,334.06,401.948,341.82,407.798,347.27z    M183.758,320.2c-2.61,4.63-8.5,6.27-13.13,3.65c-2.24-1.26-3.86-3.33-4.54-5.81c-0.69-2.48-0.38-5.08,0.89-7.32l37.45-66.26   c1.27-2.25,3.33-3.86,5.81-4.55c2.48-0.69,5.08-0.37,7.32,0.9c2.25,1.26,3.86,3.33,4.55,5.81c0.69,2.48,0.37,5.08-0.9,7.32   L183.758,320.2z M189.328,343.54c-0.05,1.26-0.09,2.51-0.1,3.73h-18.58v-14.82c3.71,1.03,7.6,0.8,11.09-0.55   c0.1,0.57,0.23,1.14,0.39,1.7C183.268,337.72,185.808,341.2,189.328,343.54z M190.728,324.14l37.45-66.26   c1.26-2.24,3.33-3.86,5.81-4.55c2.48-0.69,5.08-0.37,7.32,0.9c3.13,1.77,4.9,5.04,4.9,8.4c0,1.61-0.4,3.23-1.25,4.73l-37.45,66.27   c-2.61,4.62-8.51,6.26-13.13,3.64c-2.24-1.26-3.86-3.33-4.55-5.81C189.138,328.98,189.458,326.38,190.728,324.14z M82.908,289.56   l14.52,8.21l-8.29,10.8l-16.1-9.1L82.908,289.56z M161.978,303.3l-3.37-1.91c-5.61-3.17-12.59-1.55-16.24,3.76l-66.34,96.6   c-3.63,5.29-9.38,8.59-15.78,9.06c-6.39,0.46-12.56-1.97-16.92-6.67l-26.24-28.3c-5.43-5.86-5.27-14.9,0.37-20.56l9.83-9.87   c0.62,4.64,2.81,8.88,6.29,12.12c4.18,3.89,9.84,5.85,15.54,5.37c5.68-0.48,10.94-3.34,14.42-7.87l66.08-86.04   c2.67-3.47,3.7-7.92,2.82-12.21c-0.84-4.15-3.39-7.73-7.01-9.9l10.91-10.96c5.15-5.17,12.94-6.98,19.84-4.61l38.92,13.4   L161.978,303.3z M166.648,381.25c-7.16,0-12.99-5.83-12.99-12.99c0-7.16,5.83-12.99,12.99-12.99h22.93   c1.03,10.9,4.36,19.89,9.63,25.98H166.648z M225.528,409.61c-7.55-4.27-11.09-12.46-12.7-20.19c1.86,0.41,3.79,0.62,5.79,0.62   c20.91-0.01,48.04-21.69,67.32-55.8c10.96-19.4,17.57-39.79,18.61-57.42c0.87-14.89-2.31-26.53-9.05-33.69   c7.45-2.6,16.3-3.79,23.85,0.47c21.27,12.02,17.75,60.19-7.68,105.18C286.248,393.77,246.798,421.63,225.528,409.61z    M483.008,381.25h-183.84c6.35-7.72,12.42-16.43,17.99-25.98h165.85c7.16,0,12.99,5.83,12.99,12.99   C495.998,375.42,490.168,381.25,483.008,381.25z"/><path d="M421.528,58.36c16.87,7.09,25.85,19.84,27.45,38.99c0.17,2.07,1.91,3.66,3.99,3.66c2.08,0,3.81-1.59,3.98-3.66   c1.6-19.15,10.58-31.9,27.45-38.99c1.49-0.62,2.45-2.08,2.45-3.69s-0.96-3.06-2.45-3.69c-16.87-7.08-25.85-19.84-27.45-38.98   c-0.17-2.07-1.9-3.67-3.98-3.67c-2.08,0-3.82,1.6-3.99,3.67c-1.6,19.14-10.58,31.9-27.45,38.98c-1.49,0.63-2.45,2.08-2.45,3.69   S420.038,57.74,421.528,58.36z M452.968,30.46c4.08,10.32,11.08,18.42,20.93,24.21c-9.85,5.79-16.85,13.89-20.93,24.22   c-4.09-10.33-11.09-18.43-20.94-24.22C441.878,48.88,448.878,40.78,452.968,30.46z"/><path d="M364.678,26.61h14.61v14.61c0,2.21,1.79,4,4,4c2.2,0,4-1.79,4-4V26.61h14.6c2.21,0,4-1.79,4-4c0-2.21-1.79-4-4-4h-14.6V4   c0-2.21-1.8-4-4-4c-2.21,0-4,1.79-4,4v14.61h-14.61c-2.21,0-4,1.79-4,4C360.678,24.82,362.468,26.61,364.678,26.61z"/><path d="M84.108,123.9c16.88,7.08,25.86,19.84,27.45,38.98c0.18,2.07,1.91,3.67,3.99,3.67c2.08,0,3.81-1.6,3.99-3.67   c1.59-19.14,10.57-31.9,27.45-38.98c1.48-0.63,2.45-2.08,2.45-3.69c0-1.61-0.97-3.07-2.45-3.69   c-16.88-7.09-25.86-19.84-27.45-38.99c-0.18-2.07-1.91-3.66-3.99-3.66c-2.08,0-3.81,1.59-3.99,3.66   c-1.59,19.15-10.57,31.9-27.45,38.99c-1.48,0.62-2.45,2.08-2.45,3.69C81.658,121.82,82.628,123.27,84.108,123.9z M115.548,95.99   c4.08,10.33,11.08,18.43,20.94,24.22c-9.86,5.79-16.86,13.89-20.94,24.21c-4.08-10.32-11.08-18.42-20.94-24.21   C104.468,114.42,111.468,106.32,115.548,95.99z"/><path d="M71.578,204.64h14.61v14.61c0,2.21,1.79,4,4,4c2.21,0,4-1.79,4-4v-14.61h14.61c2.21,0,4-1.79,4-4s-1.79-4-4-4h-14.61   v-14.61c0-2.21-1.79-4-4-4c-2.21,0-4,1.79-4,4v14.61h-14.61c-2.21,0-4,1.79-4,4S69.368,204.64,71.578,204.64z"/></g><text x="0" y="453.34" fill="#000000" font-size="5px" font-weight="bold" font-family="'Helvetica Neue', Helvetica, Arial-Unicode, Arial, Sans-serif">Created by Amethyst Studio</text><text x="0" y="458.34" fill="#000000" font-size="5px" font-weight="bold" font-family="'Helvetica Neue', Helvetica, Arial-Unicode, Arial, Sans-serif">from the Noun Project</text></svg>